<svg xmlns="http://www.w3.org/2000/svg" version="1.1" xmlns:xlink="http://www.w3.org/1999/xlink" xmlns:svgjs="http://svgjs.com/svgjs" width="512" height="512" x="0" y="0" viewBox="0 0 480 480" style="enable-background:new 0 0 512 512" xml:space="preserve" class=""><g><path d="M32 384h208v16H32zM136 456c-13.254 0-24-10.746-24-24s10.746-24 24-24 24 10.746 24 24-10.746 24-24 24zm0-32a8 8 0 1 0 0 16 8 8 0 0 0 0-16zm0 0" fill="#000000" data-original="#000000" class=""></path><path d="M256 440c0 13.254-10.746 24-24 24H40c-13.254 0-24-10.746-24-24V40c0-13.254 10.746-24 24-24h16v8c0 13.254 10.746 24 24 24h112c13.254 0 24-10.746 24-24v-8h16c13.254 0 24 10.746 24 24v56h16V40c-.027-22.082-17.918-39.973-40-40H40C17.918.027.027 17.918 0 40v400c.027 22.082 17.918 39.973 40 40h192c22.082-.027 39.973-17.918 40-40V256h-16zM72 16h128v8a8 8 0 0 1-8 8H80a8 8 0 0 1-8-8zm0 0" fill="#000000" data-original="#000000" class=""></path><path d="M112 112v128h368V112zm352 112H128v-96h336zm0 0" fill="#000000" data-original="#000000" class=""></path><path d="m152.29 198.93 15.71-9.075V208h16v-18.145l15.71 9.075 8-13.86L192 176l15.71-9.07-8-13.86-15.71 9.075V144h-16v18.145l-15.71-9.075-8 13.86L160 176l-15.71 9.07zM232.29 198.93l15.71-9.075V208h16v-18.145l15.71 9.075 8-13.86L272 176l15.71-9.07-8-13.86-15.71 9.075V144h-16v18.145l-15.71-9.075-8 13.86L240 176l-15.71 9.07zM312.29 198.93l15.71-9.075V208h16v-18.145l15.71 9.075 8-13.86L352 176l15.71-9.07-8-13.86-15.71 9.075V144h-16v18.145l-15.71-9.075-8 13.86L320 176l-15.71 9.07zM392.29 198.93l15.71-9.075V208h16v-18.145l15.71 9.075 8-13.86L432 176l15.71-9.07-8-13.86-15.71 9.075V144h-16v18.145l-15.71-9.075-8 13.86L400 176l-15.71 9.07zm0 0" fill="#000000" data-original="#000000" class=""></path></g></svg>