<svg xmlns="http://www.w3.org/2000/svg" version="1.1" xmlns:xlink="http://www.w3.org/1999/xlink" xmlns:svgjs="http://svgjs.com/svgjs" width="512" height="512" x="0" y="0" viewBox="0 0 500 500" style="enable-background:new 0 0 512 512" xml:space="preserve" class=""><g><path d="M345.88 148.32a8 8 0 0 0 8-8V60.356a39.523 39.523 0 0 0-37.96-39.387c-1.114.112-192.828-.2-193.779.1A39.432 39.432 0 0 0 85.4 60.356v379.288a39.432 39.432 0 0 0 39.388 39.387h189.705a39.432 39.432 0 0 0 39.387-39.387v-63.308c-.38-10.648-15.678-10.515-16 0v63.307a23.413 23.413 0 0 1-23.387 23.387H124.784a23.414 23.414 0 0 1-23.384-23.386V60.356a23.424 23.424 0 0 1 18.47-22.862l8.18 10.463a60.774 60.774 0 0 0 48.173 23.486h86.839a60.774 60.774 0 0 0 48.173-23.486l8.18-10.463a23.424 23.424 0 0 1 18.465 22.862v79.964a8 8 0 0 0 8 8zM298.626 38.1a44.869 44.869 0 0 1-35.568 17.341h-86.839a45.056 45.056 0 0 1-36.453-18.474h159.746z" fill="#000000" data-original="#000000" class=""></path><path d="M314.618 248.074c1.033-50.08-43.091-94.211-93.174-93.173a92.56 92.56 0 0 0-65.883 27.289c-58.449 57.7-16.2 159.745 65.885 159.056 50.079 1.033 94.208-43.089 93.172-93.172zm-93.174 77.173c-67.985.564-102.99-83.955-54.568-131.744 48.258-48.422 131.863-13.785 131.742 54.572.855 41.478-35.691 78.031-77.174 77.172zM435.931 142.5c-4.816-5.264-13.926-1.654-13.828 5.48v17.62H353.8a28.767 28.767 0 0 0 0 57.534h68.3v17.626c-.149 7.075 9.059 10.765 13.828 5.48l43.62-46.393a8 8 0 0 0 0-10.96zm2.172 78.08v-5.439a8 8 0 0 0-8-8H353.8c-16.887-.63-16.934-24.886 0-25.535h76.3a8 8 0 0 0 8-8v-5.439l24.639 26.206zM367.036 251.8a8 8 0 0 0-8.775 1.958l-43.62 46.393a8 8 0 0 0 0 10.96l43.62 46.394c4.76 5.272 13.983 1.607 13.828-5.48V334.4h68.3a28.767 28.767 0 0 0 0-57.534h-68.3v-17.63a8 8 0 0 0-5.053-7.436zm73.353 41.064c16.895.635 16.926 24.888 0 25.535h-76.3a8 8 0 0 0-8 8v5.439l-24.64-26.206 24.64-26.206v5.439a8 8 0 0 0 8 8zM204.272 429.3c-10.565.323-10.579 15.673 0 16h30.732c10.566-.323 10.58-15.673 0-16z" fill="#000000" data-original="#000000" class=""></path><path d="M218.234 221.553h22.359c10.573-.327 10.573-15.675 0-16h-11.149v-8.42a8 8 0 0 0-16 0v8.91c-12.5 2.57-20.3 14.435-19.148 27.427a24.187 24.187 0 0 0 23.938 24.375h6.42a8.387 8.387 0 0 1 0 16.75H202.3c-10.566.318-10.578 15.676 0 16h11.1v8.419a8 8 0 0 0 16 0v-8.9c27.894-6.39 24.168-47.508-4.749-48.268h-6.42a8.175 8.175 0 0 1-7.938-8.375v-3.542a8.175 8.175 0 0 1 7.941-8.376z" fill="#000000" data-original="#000000" class=""></path></g></svg>