<svg width="512" height="512" viewBox="0 0 512 512" fill="none" xmlns="http://www.w3.org/2000/svg">
<rect width="512" height="512" fill="white"/>
<path d="M327.973 176.512C327.974 178.634 328.817 180.668 330.318 182.168C331.82 183.667 333.855 184.509 335.976 184.508L447.976 184.453C452.219 184.455 456.287 186.14 459.288 189.138C462.289 192.136 463.978 196.203 463.984 200.445L464.087 407.725C464.085 411.967 462.4 416.035 459.402 419.036C456.404 422.037 452.338 423.726 448.095 423.733L64.0954 423.923C59.8532 423.921 55.7852 422.236 52.7841 419.238C49.7829 416.24 48.0938 412.174 48.0875 407.931L48.0659 364.563L68.4991 350.921C69.5941 350.19 70.4916 349.2 71.1121 348.038C71.7325 346.877 72.0567 345.58 72.0558 344.263L72.0161 264.263C72.0156 262.947 71.6902 261.65 71.0686 260.49C70.447 259.329 69.5485 258.339 68.4528 257.609L48.006 243.995L47.9845 200.651C47.9866 196.409 49.6716 192.341 52.6698 189.34C55.668 186.339 59.7344 184.65 63.9765 184.643L199.977 184.576C202.098 184.575 204.133 183.731 205.632 182.23C207.132 180.729 207.974 178.694 207.973 176.572C207.971 174.45 207.128 172.416 205.627 170.916C204.126 169.417 202.09 168.575 199.969 168.576L63.9686 168.643C55.4849 168.658 47.3534 172.037 41.3575 178.039C35.3616 184.041 31.9908 192.176 31.9845 200.659L32.0875 407.939C32.1023 416.423 35.4811 424.554 41.483 430.55C47.4848 436.546 55.6197 439.917 64.1034 439.923L448.103 439.733C456.588 439.72 464.72 436.342 470.717 430.339C476.713 424.337 480.083 416.201 480.087 407.717L479.984 200.437C479.972 191.952 476.594 183.82 470.591 177.823C464.589 171.827 456.453 168.457 447.969 168.453L335.969 168.508C333.847 168.509 331.812 169.353 330.313 170.854C328.813 172.355 327.971 174.391 327.973 176.512ZM48.0156 263.227L56.0182 268.559L56.0537 339.999L48.0564 345.331L48.0156 263.227Z" fill="black"/>
<path d="M426.398 341.744C424.897 340.245 424.053 338.21 424.052 336.089L424.02 272.089C424.019 269.967 424.861 267.932 426.36 266.431C427.86 264.929 429.894 264.086 432.016 264.085C434.138 264.084 436.173 264.925 437.674 266.425C439.175 267.924 440.019 269.959 440.02 272.081L440.052 336.081C440.053 338.202 439.211 340.238 437.711 341.739C436.212 343.24 434.178 344.084 432.056 344.085C429.934 344.086 427.899 343.244 426.398 341.744Z" fill="black"/>
<path d="M119.183 297.145L126.071 287.67L114.947 284.017L117.211 277L128.367 280.654L128.302 268.916H135.771L135.707 280.654L146.895 277.032L149.191 284.049L138.067 287.67L144.858 297.145L138.908 301.478L132.053 291.971L125.133 301.445L119.183 297.145ZM187.055 289.514H157.662V280.46H202.576L176.223 331H164.582L187.055 289.514ZM211.016 322.205L228.833 309.982C231.506 308.15 233.694 306.554 235.397 305.196C237.1 303.838 238.436 302.631 239.407 301.575C240.377 300.497 241.045 299.527 241.411 298.665C241.778 297.802 241.961 296.94 241.961 296.078C241.961 295.086 241.756 294.159 241.347 293.297C240.937 292.435 240.29 291.68 239.407 291.033C238.544 290.387 237.423 289.88 236.044 289.514C234.686 289.147 233.058 288.964 231.161 288.964C228.402 288.964 225.653 289.352 222.915 290.128C220.178 290.904 217.386 292.144 214.541 293.847L209.82 286.086C212.988 284.124 216.416 282.594 220.102 281.494C223.81 280.395 227.701 279.845 231.775 279.845C235.332 279.845 238.415 280.276 241.023 281.139C243.653 281.979 245.82 283.133 247.523 284.599C249.247 286.064 250.53 287.767 251.371 289.708C252.211 291.648 252.632 293.706 252.632 295.884C252.632 297.565 252.352 299.171 251.791 300.702C251.231 302.232 250.25 303.817 248.848 305.455C247.447 307.093 245.55 308.861 243.157 310.758C240.786 312.633 237.79 314.768 234.168 317.16L226.796 322.011H254.475V331H211.016V322.205ZM268.153 318.971C270.696 320.222 273.413 321.138 276.301 321.72C279.212 322.28 282.046 322.56 284.806 322.56C287.263 322.56 289.386 322.366 291.176 321.978C292.965 321.569 294.442 321.019 295.606 320.329C296.77 319.639 297.632 318.82 298.192 317.872C298.753 316.923 299.033 315.899 299.033 314.8C299.033 313.312 298.527 311.987 297.513 310.823C296.5 309.637 294.959 308.753 292.889 308.171C290.841 307.568 288.244 307.33 285.097 307.46C281.971 307.589 278.285 308.203 274.038 309.303L274.07 301.736L292.954 289.449H266.213V280.46H306.664V289.255L290.044 299.796C293.083 299.796 295.8 300.184 298.192 300.96C300.585 301.736 302.601 302.803 304.239 304.162C305.877 305.52 307.128 307.126 307.99 308.98C308.852 310.833 309.283 312.827 309.283 314.962C309.283 317.484 308.723 319.78 307.602 321.849C306.503 323.897 304.897 325.654 302.784 327.12C300.671 328.564 298.085 329.685 295.024 330.483C291.984 331.28 288.535 331.679 284.676 331.679C280.58 331.679 276.797 331.248 273.326 330.386C269.856 329.502 266.558 328.284 263.432 326.732L268.153 318.971ZM328.394 318.486H319.566V311.308H329.946L332.533 299.117H319.566V291.939H334.052L336.575 280.136H344.885L342.363 291.939H357.657L360.18 280.136H368.49L365.968 291.939H375.604V299.117H364.448L361.861 311.308H375.604V318.486H360.309L357.657 331H349.347L351.999 318.486H336.704L334.052 331H325.742L328.394 318.486ZM353.551 311.308L356.138 299.117H340.843L338.256 311.308H353.551Z" fill="black"/>
<path d="M338.93 168.971H195V175.5V184.029H338.93V168.971Z" fill="black" stroke="black" stroke-width="0.941093"/>
</svg>
